PathFileType	4	(X/Y/Z)	data/andrienko/jump_jo 3.trc
DataRate	CameraRate	NumFrames	NumMarkers	Units	OrigDataRate	OrigDataStartFrame	OrigNumFrames
400	400	6	71	mm	400	115	456
Frame#	Time	r_asis			l_asis			r_psis			sacrum			l_psis			r_illiac			r_troch			l_illiac			l_troch			r_thigh1			r_thigh2			r_thigh3			r_thigh4			rl_knee			rm_knee			r_shank1			r_shank2			r_shank3			r_shank4			r_heel			rl_ankle			rm_ankle			r_metatarsal5			r_metatarsal1			l_thigh1			l_thigh2			l_thigh3			l_thigh4			ll_knee			lm_knee			l_shank1			l_shank2			l_shank3			l_shank4			l_heel			ll_ankle			lm_ankle			l_metatarsal5			l_metatarsal1			back_down			neck			back_right			back_left			head_up			head_front			head_left			head_right			r_shoulder			r_humerus1			r_humerus2			r_humerus3			rl_elbow			rm_elbow			r_radius1			r_radius2			r_radius3			rl_wrist			rm_wrist			r_hand			l_shoulder			l_humerus1			l_humerus2			l_humerus3			ll_elbow			lm_elbow			l_radius1			l_radius2			l_radius3			ll_wrist			lm_wrist			l_hand		
		X1	Y1	Z1	X2	Y2	Z2	X3	Y3	Z3	X4	Y4	Z4	X5	Y5	Z5	X6	Y6	Z6	X7	Y7	Z7	X8	Y8	Z8	X9	Y9	Z9	X10	Y10	Z10	X11	Y11	Z11	X12	Y12	Z12	X13	Y13	Z13	X14	Y14	Z14	X15	Y15	Z15	X16	Y16	Z16	X17	Y17	Z17	X18	Y18	Z18	X19	Y19	Z19	X20	Y20	Z20	X21	Y21	Z21	X22	Y22	Z22	X23	Y23	Z23	X24	Y24	Z24	X25	Y25	Z25	X26	Y26	Z26	X27	Y27	Z27	X28	Y28	Z28	X29	Y29	Z29	X30	Y30	Z30	X31	Y31	Z31	X32	Y32	Z32	X33	Y33	Z33	X34	Y34	Z34	X35	Y35	Z35	X36	Y36	Z36	X37	Y37	Z37	X38	Y38	Z38	X39	Y39	Z39	X40	Y40	Z40	X41	Y41	Z41	X42	Y42	Z42	X43	Y43	Z43	X44	Y44	Z44	X45	Y45	Z45	X46	Y46	Z46	X47	Y47	Z47	X48	Y48	Z48	X49	Y49	Z49	X50	Y50	Z50	X51	Y51	Z51	X52	Y52	Z52	X53	Y53	Z53	X54	Y54	Z54	X55	Y55	Z55	X56	Y56	Z56	X57	Y57	Z57	X58	Y58	Z58	X59	Y59	Z59	X60	Y60	Z60	X61	Y61	Z61	X62	Y62	Z62	X63	Y63	Z63	X64	Y64	Z64	X65	Y65	Z65	X66	Y66	Z66	X67	Y67	Z67	X68	Y68	Z68	X69	Y69	Z69	X70	Y70	Z70	X71	Y71	Z71
115	0.2850	-404.917	815.724	482.304	-423.266	825.680	266.040	-570.142	911.298	472.615	-564.810	949.395	386.240	-583.645	919.367	312.613	-440.106	881.773	538.101	-445.873	720.006	577.622	-460.925	883.593	222.049	-479.003	722.284	176.535	-405.374	650.929	574.228	-346.252	696.830	557.426	-276.615	588.238	563.474	-327.389	555.796	572.504	-241.342	453.136	558.677	-234.625	429.182	417.878	-326.207	346.076	577.652	-256.827	310.736	567.485	-311.253	216.783	563.817	-365.315	244.560	577.244	-494.703	75.807	515.928	-427.874	93.586	567.194	-400.382	84.914	465.946	-288.430	37.770	580.866	-269.708	38.303	485.227	-437.789	612.217	183.500	-382.527	664.769	167.982	-297.506	575.295	164.094	-345.772	528.742	178.111	-248.896	468.180	166.822	-240.486	440.715	306.871	-363.061	351.850	162.252	-298.683	322.068	156.805	-342.894	227.531	168.995	-398.065	247.284	173.509	-502.709	64.294	234.567	-431.941	89.308	183.205	-412.798	99.468	281.846	-286.801	32.187	169.337	-264.045	42.495	258.187	-527.323	1029.809	384.136	-280.077	1290.685	376.467	-399.157	1225.626	484.230	-400.660	1227.709	285.328	-108.624	1472.802	374.842	-5.884	1362.616	371.598	-104.293	1365.882	276.759	-112.704	1376.460	465.719	-208.373	1235.512	539.109	-248.552	1080.459	637.372	-297.001	1189.837	689.872	-316.348	1091.792	711.869	-386.217	1037.201	777.882	-454.539	1087.803	728.650	-373.211	949.297	674.457	-444.825	934.632	772.495	-438.286	876.107	687.377	-503.052	871.453	605.637	-475.269	815.701	672.567	-441.755	829.046	609.133	-216.143	1245.708	219.201	-255.221	1075.534	113.203	-307.439	1182.017	56.883	-324.950	1082.166	35.002	-365.923	1034.042	-7.177	-457.975	1081.523	30.394	-433.316	983.800	127.547	-396.887	915.409	22.474	-452.827	886.202	101.591	-475.609	827.634	93.742	-515.601	888.494	144.393	-470.419	852.666	152.399
116	0.2875	-406.585	812.229	482.559	-424.662	822.253	266.053	-571.330	908.522	472.512	-565.486	946.401	386.351	-584.607	916.925	313.037	-441.741	878.201	538.402	-447.538	717.401	577.997	-462.294	879.986	222.016	-480.370	719.667	176.396	-406.339	648.810	574.361	-347.577	695.203	557.728	-276.992	587.213	563.803	-327.498	554.349	572.731	-240.570	452.312	558.827	-233.854	428.559	417.979	-325.535	345.729	577.843	-256.180	310.249	567.581	-310.767	216.296	563.813	-364.820	244.186	577.272	-494.626	75.792	515.844	-427.754	93.546	567.110	-400.227	84.832	465.842	-288.450	37.645	580.982	-269.644	38.200	485.325	-438.601	609.995	183.529	-383.825	663.179	167.765	-298.050	574.424	163.536	-345.854	527.295	177.730	-248.541	467.586	166.203	-239.349	440.296	306.385	-362.596	351.590	162.074	-298.351	321.764	156.482	-342.682	227.249	168.816	-397.804	247.090	173.407	-502.698	64.264	234.628	-431.919	89.253	183.274	-412.790	99.417	281.849	-286.840	32.177	169.225	-264.118	42.496	258.085	-527.395	1026.704	384.284	-277.899	1285.745	376.537	-397.314	1221.673	484.251	-398.825	1223.684	285.266	-107.190	1467.181	374.896	-4.194	1357.274	371.622	-102.641	1360.329	276.767	-110.989	1370.754	465.743	-206.327	1229.782	539.155	-248.729	1075.075	637.117	-295.856	1185.178	689.601	-316.415	1087.443	711.724	-387.073	1033.781	777.629	-454.829	1084.848	727.927	-374.561	945.609	674.584	-446.500	931.728	772.491	-440.119	873.021	687.597	-505.143	868.550	605.833	-477.583	812.400	673.421	-444.537	826.277	609.478	-214.186	1239.521	219.434	-255.050	1069.989	113.439	-306.109	1176.922	56.964	-324.733	1077.221	35.244	-366.107	1029.632	-6.949	-457.785	1077.829	30.722	-434.483	980.095	127.700	-397.942	911.261	22.633	-454.394	882.583	101.733	-477.303	824.216	93.990	-517.252	885.336	144.358	-472.270	849.435	152.548
117	0.2900	-409.169	808.634	482.913	-426.018	818.831	266.076	-572.516	905.710	472.409	-566.136	943.412	386.484	-585.597	914.057	313.268	-443.203	874.585	538.732	-449.217	714.558	578.335	-463.603	876.337	221.915	-481.943	717.165	176.274	-407.311	646.563	574.585	-349.045	693.443	557.913	-277.471	586.275	564.145	-327.594	552.923	573.007	-239.838	451.537	559.021	-233.130	427.855	418.084	-324.780	345.347	577.939	-255.552	309.626	567.643	-310.284	215.940	563.856	-364.353	243.910	577.315	-494.558	75.783	515.770	-427.635	93.471	567.030	-400.121	84.687	465.784	-288.429	37.552	581.050	-269.602	38.108	485.432	-439.340	607.839	183.437	-385.173	661.401	167.542	-298.537	573.810	162.793	-345.994	525.890	177.912	-248.216	466.987	165.596	-237.948	439.914	305.898	-362.149	351.360	161.847	-297.976	321.401	156.191	-342.406	226.939	168.624	-397.475	246.890	173.301	-502.717	64.218	234.680	-431.889	89.174	183.280	-412.731	99.354	281.842	-286.872	32.143	169.098	-264.235	42.426	258.039	-527.461	1023.599	384.428	-275.751	1280.707	376.573	-395.453	1217.629	484.300	-397.034	1219.619	285.339	-105.846	1461.564	374.998	-2.508	1352.001	371.649	-101.033	1354.760	276.779	-109.385	1365.063	465.832	-204.319	1223.962	539.176	-248.129	1070.020	637.545	-294.734	1180.472	689.360	-316.457	1083.139	711.449	-387.914	1030.348	777.393	-455.038	1081.805	727.262	-375.769	941.752	674.725	-448.177	928.928	772.440	-442.965	869.748	687.862	-507.123	865.579	605.963	-479.607	809.507	673.581	-446.607	823.230	609.770	-212.190	1233.612	219.429	-254.869	1064.591	113.725	-304.812	1171.800	57.034	-324.505	1072.325	35.490	-366.398	1025.160	-6.758	-457.540	1074.102	31.005	-434.487	975.969	127.911	-399.034	907.053	22.794	-455.598	878.768	101.823	-479.098	820.715	94.172	-518.721	881.981	144.378	-473.964	846.139	152.610
118	0.2925	-410.911	805.130	483.227	-427.354	815.410	266.105	-573.620	902.916	472.433	-566.796	940.373	386.644	-586.505	911.234	313.489	-444.719	870.997	539.062	-450.810	711.854	578.668	-465.017	872.731	221.888	-483.215	714.567	176.159	-408.292	644.423	574.752	-350.465	691.711	558.248	-277.937	585.320	564.490	-327.768	551.453	573.259	-239.165	450.847	559.183	-232.286	427.348	418.237	-324.049	344.837	578.060	-254.889	309.109	567.792	-309.881	215.473	563.845	-363.781	243.728	577.408	-494.496	75.754	515.705	-427.528	93.424	566.970	-400.019	84.563	465.699	-288.434	37.454	581.175	-269.560	38.029	485.530	-440.113	605.744	183.406	-386.463	659.768	167.299	-299.152	572.710	162.435	-346.051	524.454	177.591	-247.888	466.414	164.999	-236.633	439.766	305.441	-361.644	350.935	161.688	-297.442	320.883	155.748	-342.135	226.649	168.411	-397.111	246.584	173.199	-502.702	64.198	234.721	-431.867	89.063	183.293	-412.656	99.289	281.836	-286.899	32.157	168.977	-264.322	42.397	257.973	-527.523	1020.500	384.583	-273.647	1275.630	376.600	-393.690	1213.651	484.401	-395.270	1215.509	285.336	-104.494	1455.871	375.091	-0.911	1346.553	371.685	-99.588	1349.228	276.786	-107.850	1359.320	465.877	-202.358	1218.291	539.147	-248.079	1064.771	637.645	-293.575	1175.723	689.151	-316.659	1078.740	711.440	-388.891	1027.074	777.158	-455.280	1078.802	726.509	-376.995	937.969	674.878	-449.819	926.096	772.454	-445.045	866.557	688.161	-509.032	862.595	606.183	-481.569	806.524	673.739	-448.654	820.496	610.117	-210.261	1227.711	219.384	-254.660	1059.031	113.957	-303.518	1166.661	57.115	-324.369	1067.389	35.746	-366.601	1020.666	-6.599	-457.309	1070.361	31.324	-435.138	972.082	128.110	-400.008	903.023	22.977	-457.075	875.168	101.940	-480.594	817.267	94.366	-520.222	878.682	144.448	-475.746	843.013	152.754
119	0.2950	-412.382	801.817	483.701	-428.660	811.988	266.144	-574.684	900.124	472.410	-567.391	937.364	386.795	-587.367	908.399	313.690	-446.158	867.443	539.395	-452.404	708.981	579.010	-466.715	869.304	221.882	-484.605	711.990	176.056	-409.308	642.184	574.942	-351.914	690.185	558.647	-279.122	584.734	564.414	-327.845	550.048	573.498	-238.455	450.194	559.503	-231.586	426.704	418.399	-323.343	344.546	578.206	-254.228	308.590	567.881	-309.414	215.111	563.863	-363.135	243.557	577.544	-494.450	75.757	515.664	-427.423	93.340	566.918	-399.921	84.437	465.659	-288.436	37.366	581.255	-269.513	37.960	485.628	-440.840	603.382	183.441	-387.640	658.020	167.006	-300.346	571.357	162.040	-346.059	523.091	177.244	-247.643	465.820	164.392	-235.667	439.381	304.963	-361.134	350.647	161.496	-297.010	320.517	155.408	-341.807	226.299	168.200	-396.713	246.316	173.112	-502.680	64.154	234.755	-431.826	88.942	183.313	-412.617	99.238	281.836	-286.926	32.142	168.853	-264.344	42.357	257.889	-527.537	1017.331	384.722	-271.581	1270.487	376.630	-392.002	1209.801	484.505	-393.604	1211.614	285.250	-103.164	1450.233	375.200	0.674	1341.165	371.722	-97.851	1343.550	276.870	-106.266	1353.476	465.870	-200.428	1212.428	539.246	-247.960	1059.500	637.791	-292.439	1171.000	688.903	-316.732	1074.315	711.287	-389.674	1023.702	776.880	-455.511	1075.833	725.776	-378.125	934.355	674.991	-451.556	923.102	772.279	-446.841	863.291	688.377	-511.002	859.713	606.300	-483.589	803.603	673.945	-450.621	817.537	610.473	-208.319	1221.799	219.373	-254.431	1053.510	114.196	-302.229	1161.560	57.172	-324.813	1061.953	36.735	-366.815	1016.246	-6.408	-457.060	1066.628	31.615	-436.210	968.341	128.214	-401.136	898.864	23.179	-458.342	871.483	102.074	-482.274	813.686	94.547	-521.674	875.531	144.464	-477.289	839.721	152.822
120	0.2975	-413.874	798.478	484.125	-429.944	808.563	266.192	-575.726	897.316	472.397	-567.923	934.414	386.940	-588.249	905.713	313.851	-447.589	863.785	539.657	-454.467	706.110	579.127	-468.018	865.716	221.868	-485.932	709.412	175.979	-410.353	639.963	575.121	-353.451	688.201	558.872	-279.647	583.850	564.739	-328.112	548.617	573.751	-237.727	449.424	559.725	-230.654	426.349	418.574	-322.641	344.139	578.354	-253.592	308.103	568.016	-308.896	214.733	563.901	-362.643	243.226	577.587	-494.394	75.739	515.629	-427.338	93.282	566.878	-400.000	84.379	465.644	-288.460	37.258	581.346	-269.488	37.889	485.746	-441.586	601.021	183.523	-388.976	656.152	166.754	-300.926	570.377	161.538	-346.109	521.645	176.890	-247.308	465.193	163.736	-234.492	439.117	304.518	-360.528	350.339	161.257	-296.589	320.033	155.129	-341.502	225.861	168.013	-396.335	246.088	172.996	-502.681	64.128	234.804	-431.793	88.878	183.311	-412.569	99.181	281.826	-286.954	32.110	168.750	-264.366	42.384	257.754	-527.569	1014.153	384.859	-269.610	1265.334	376.714	-390.264	1205.708	484.638	-391.899	1207.372	285.183	-101.808	1444.509	375.258	2.178	1335.757	371.818	-96.303	1337.873	277.005	-104.736	1347.665	465.966	-198.503	1206.516	539.264	-248.150	1053.976	637.744	-291.318	1166.266	688.653	-316.823	1069.941	711.131	-390.548	1020.366	776.634	-455.690	1072.825	725.005	-379.536	930.556	675.145	-453.144	920.295	772.233	-448.714	860.082	688.616	-512.814	856.737	606.518	-485.466	800.655	674.171	-451.574	814.820	610.956	-206.513	1215.870	219.356	-254.295	1048.025	114.355	-300.968	1156.458	57.258	-324.560	1057.321	36.785	-367.112	1011.780	-6.259	-456.847	1062.881	31.864	-436.679	964.551	128.360	-402.144	894.871	23.395	-459.518	867.763	102.231	-483.764	810.365	94.714	-523.097	872.240	144.465	-478.829	836.435	152.877
